<svg width="25" height="25" viewBox="0 0 25 25" fill="none" xmlns="http://www.w3.org/2000/svg">
<g clip-path="url(#clip0_66_10)">
<path d="M0.190918 2.72813C0.190918 2.53049 0.269428 2.34095 0.409178 2.2012C0.548927 2.06145 0.738467 1.98294 0.936103 1.98294H3.17166C3.33788 1.98299 3.49931 2.03861 3.63029 2.14096C3.76126 2.24331 3.85426 2.38651 3.89449 2.54779L4.49809 4.96368H21.8013C21.9107 4.96378 22.0187 4.98798 22.1178 5.03455C22.2168 5.08112 22.3043 5.14892 22.3742 5.23314C22.444 5.31736 22.4945 5.41593 22.5219 5.52185C22.5494 5.62776 22.5532 5.73843 22.533 5.84598L20.2975 17.7689C20.2655 17.9397 20.1749 18.0939 20.0413 18.205C19.9077 18.316 19.7394 18.3768 19.5657 18.377H6.1524C5.97867 18.3768 5.81045 18.316 5.67683 18.205C5.54322 18.0939 5.45259 17.9397 5.42062 17.7689L3.18656 5.86833L2.59041 3.47331H0.936103C0.738467 3.47331 0.548927 3.3948 0.409178 3.25505C0.269428 3.1153 0.190918 2.92576 0.190918 2.72813ZM4.81404 6.45405L6.7709 16.8866H18.9472L20.9041 6.45405H4.81404ZM7.64276 18.377C6.85222 18.377 6.09406 18.691 5.53506 19.25C4.97607 19.809 4.66203 20.5672 4.66203 21.3577C4.66203 22.1483 4.97607 22.9064 5.53506 23.4654C6.09406 24.0244 6.85222 24.3385 7.64276 24.3385C8.43331 24.3385 9.19147 24.0244 9.75047 23.4654C10.3095 22.9064 10.6235 22.1483 10.6235 21.3577C10.6235 20.5672 10.3095 19.809 9.75047 19.25C9.19147 18.691 8.43331 18.377 7.64276 18.377ZM18.0753 18.377C17.2848 18.377 16.5266 18.691 15.9676 19.25C15.4087 19.809 15.0946 20.5672 15.0946 21.3577C15.0946 22.1483 15.4087 22.9064 15.9676 23.4654C16.5266 24.0244 17.2848 24.3385 18.0753 24.3385C18.8659 24.3385 19.6241 24.0244 20.183 23.4654C20.742 22.9064 21.0561 22.1483 21.0561 21.3577C21.0561 20.5672 20.742 19.809 20.183 19.25C19.6241 18.691 18.8659 18.377 18.0753 18.377ZM7.64276 19.8674C8.03804 19.8674 8.41712 20.0244 8.69661 20.3039C8.97611 20.5834 9.13313 20.9625 9.13313 21.3577C9.13313 21.753 8.97611 22.1321 8.69661 22.4116C8.41712 22.6911 8.03804 22.8481 7.64276 22.8481C7.24749 22.8481 6.86841 22.6911 6.58891 22.4116C6.30942 22.1321 6.1524 21.753 6.1524 21.3577C6.1524 20.9625 6.30942 20.5834 6.58891 20.3039C6.86841 20.0244 7.24749 19.8674 7.64276 19.8674ZM18.0753 19.8674C18.4706 19.8674 18.8497 20.0244 19.1292 20.3039C19.4087 20.5834 19.5657 20.9625 19.5657 21.3577C19.5657 21.753 19.4087 22.1321 19.1292 22.4116C18.8497 22.6911 18.4706 22.8481 18.0753 22.8481C17.6801 22.8481 17.301 22.6911 17.0215 22.4116C16.742 22.1321 16.585 21.753 16.585 21.3577C16.585 20.9625 16.742 20.5834 17.0215 20.3039C17.301 20.0244 17.6801 19.8674 18.0753 19.8674V19.8674Z" fill="white"/>
</g>
<defs>
<clipPath id="clip0_66_10">
<rect width="23.8459" height="23.8459" fill="white" transform="translate(0.190918 0.492371)"/>
</clipPath>
</defs>
</svg>
