<svg width="25" height="25" viewBox="0 0 25 25" fill="none" xmlns="http://www.w3.org/2000/svg">
<path d="M21.8126 21.4377L16.185 15.81C17.5374 14.1865 18.2117 12.1041 18.0678 9.99603C17.9239 7.88795 16.9729 5.91651 15.4124 4.49181C13.852 3.06711 11.8024 2.29885 9.68995 2.34685C7.57752 2.39485 5.56491 3.25541 4.0708 4.74951C2.5767 6.24362 1.71614 8.25623 1.66814 10.3687C1.62014 12.4811 2.3884 14.5307 3.8131 16.0911C5.2378 17.6516 7.20924 18.6027 9.31732 18.7466C11.4254 18.8904 13.5078 18.2161 15.1313 16.8637L20.759 22.4914L21.8126 21.4377ZM3.18303 10.5684C3.18303 9.24195 3.57637 7.94529 4.31331 6.84238C5.05025 5.73948 6.09768 4.87987 7.32317 4.37226C8.54865 3.86465 9.89713 3.73183 11.1981 3.99061C12.4991 4.24939 13.6941 4.88814 14.632 5.82608C15.57 6.76402 16.2087 7.95903 16.4675 9.26C16.7263 10.561 16.5935 11.9094 16.0858 13.1349C15.5782 14.3604 14.7186 15.4079 13.6157 16.1448C12.5128 16.8817 11.2161 17.2751 9.88969 17.2751C8.11158 17.2731 6.40686 16.5659 5.14955 15.3086C3.89223 14.0512 3.18501 12.3465 3.18303 10.5684V10.5684Z" fill="white"/>
</svg>
