<svg width="40" height="38" viewBox="0 0 440 338" fill="none" xmlns="http://www.w3.org/2000/svg">
<path d="M126.519 87.1378C126.671 87.1355 127.665 87.8865 130.895 90.9577H135.35L158.978 44.8149V36.7002L162.161 32.4837H163.434L181.97 0.183762L194.62 16.0155L193.586 17.2088L195.893 19.516L198.279 21.664L205.201 22.8573L212.043 27.5512L218.407 25.0054L226.84 28.5059V36.7002H229.863L232.568 39.4846V44.0194L239.649 52.5319H242.513L243.547 54.123L245.536 54.9982L249.673 61.84H258.026L267.493 57.4644H273.938C275.051 57.1462 277.486 56.4461 278.313 56.1915C279.141 55.9369 280.992 55.2899 281.814 54.9982H286.11L289.61 54.123H293.588L299.475 49.9861H305.442L307.431 47.1221L310.056 44.8149H312.602L314.273 44.0194L315.625 42.6669L317.614 39.4846L319.126 36.7002V34.3135L320.239 32.4837H333.764L335.435 30.8926H337.583V38.53L343.231 42.6669H346.413L349.675 49.3496L349.039 52.5319L345.379 57.4644L347.527 61.84L351.028 61.4422L354.846 54.9982H359.381V52.5319L362.166 51.3386L363.2 45.8492H367.814L371.315 49.9861L378.713 51.3386L383.964 52.5319V49.9861L380.384 47.1221V44.0194L386.033 38.53L391.522 36.7002L403.296 39.4846L404.808 42.6669L414.036 44.8149L419.924 52.5319H423.106L433.448 61.84L436.074 61.4422L439.574 59.2942V65.3405L436.074 67.3294H432.732L423.106 66.4543L418.81 64.4654H414.991L412.923 65.3405H410.456H407.672L404.808 68.125L401.785 69.1592L401.307 73.9326L403.296 76.7966L408.786 74.6486L412.923 75.4442L411.809 78.9446L410.456 81.0927L408.786 82.6042H404.808L403.296 84.5932L401.785 91.2759L399.955 92.7875V95.0946L403.296 96.1288L404.808 95.0946H411.809V98.1178L407.672 101.777L408.786 104.96L414.036 103.448L416.423 107.426V120.712H419.924L418.81 136.066V139.885L417.298 142.192L416.423 146.011V150.705L417.298 152.057V155.398L419.924 158.978V170.832L416.423 171.707L414.036 170.037H410.456L408.786 175.765L407.672 181.095L406.797 185.312L410.456 188.414L408.786 194.938V203.291L406.797 208.144V212.043L410.456 217.134H412.923L416.423 226.124L415.309 227.238V229.784L417.298 230.579L414.673 238.455L411.65 238.933V243.149L414.036 246.172L411.65 247.923V252.378L414.036 253.889L411.65 257.072L414.036 261.765H421.913L427.163 270.835V278.79L423.424 290.167L417.219 297.088L416.025 311.886L418.571 313.954L417.219 326.445L413.48 329.229H411.411L406.797 332.014H395.42L394.306 335.673H391.522L385.078 337.98V331.775L382.771 329.229H380.464H373.463L369.564 326.445L364.234 329.229V331.775H360.336H356.915H352.778L349.437 326.445L348.164 320.876L347.129 313.954L345.3 304.965L339.731 288.099L340.845 286.587L348.164 285.791L349.994 284.598L353.574 282.53V280.859L352.778 278.79L351.823 276.722H355.642V275.37L352.778 273.222V270.835L355.642 269.244V266.38L353.574 265.505V264.152L355.642 262.481L356.915 261.765L356.199 260.095L355.642 259.299L354.608 257.947H351.823L351.266 257.072V256.276L349.994 253.889L349.437 252.378L347.129 250.071V240.922L342.277 239.887L339.731 240.922L336.946 241.797L333.207 243.149L328.275 246.172L323.819 241.797L318.728 239.887L318.171 229.306L322.149 225.169V220.237L320.955 219.68L317.694 217.134L316.341 216.418H313.159L312.363 214.668V212.043L311.488 209.895H310.613L309.022 211.088L306.158 212.043L302.18 212.997H297.248H294.145H292.633C292.235 212.812 291.376 212.361 291.122 212.043C290.867 211.724 289.637 211.274 289.053 211.088C288.523 210.796 287.383 210.149 287.064 209.895C286.746 209.64 285.924 209.417 285.553 209.338L283.803 208.144L285.553 205.28V203.291V201.541L284.678 198.598V193.983L283.803 192.153L282.689 190.721L282.052 188.414L280.7 185.312L279.586 182.607L277.677 178.788L276.961 178.231L275.529 178.788L273.222 179.504L270.914 179.981L267.971 177.595L266.3 177.117L262.8 181.095L261.288 181.413H258.822L256.196 182.05L254.526 182.607L251.741 183.8V182.05L253.253 179.981L254.208 178.788L256.196 177.595L259.458 176.401L261.288 175.765L261.925 175.049L260.89 171.707H251.423L248.161 168.923H246.411L243.467 172.742H241.876L239.49 174.094L238.296 173.299L233.443 174.412V176.799L227.795 179.981L224.294 178.231L219.76 179.981H216.02L211.327 183.482L207.985 178.231L200.109 183.482L193.426 178.231L188.573 179.981L185.948 174.89L179.265 175.208L169.639 165.423L166.934 161.206L164.945 162.24L156.592 174.412L153.41 184.039L146.886 190.483H143.942L140.362 193.108H135.748L131.691 196.45L123.178 197.006L119.996 194.222L117.768 197.006H112.597L110.608 195.336L109.017 196.45L108.221 195.336L106.233 194.222L104.244 196.45L102.255 191.835L95.9697 188.176H85.0705L82.6838 191.119L69.0797 196.45L59.692 194.222L55.6346 190.483H54.6004L51.8159 188.176L49.0314 185.789L45.9287 184.039L43.3829 183.482L37.814 176.799L35.1886 172.423L32.0859 171.787L27.6307 169.4L18.5613 168.287L14.7426 166.695L9.65098 164.229L8.05985 158.581L4.79804 156.751V154.762L3.20691 152.534V149.511L0.183762 144.42L4.79804 135.191L0.183762 120.234L12.1172 83.002L14.7426 81.1722L25.0054 74.3304L31.8472 76.4784L34.8704 74.3304H51.8159L65.8178 77.9104L70.273 83.002L72.6597 81.1722L81.2518 79.422L81.8882 69.8752L86.2638 61.2036H93.7422L96.0493 58.0213L99.7884 59.0555L106.233 57.1462L116.575 67.8067V70.5117L119.678 74.3304L118.325 76.4784L126.519 83.002V87.1378Z" fill="url(#paint0_linear_16_41)"/>
<defs>
<linearGradient id="paint0_linear_16_41" x1="423.766" y1="76.3203" x2="188.039" y2="337.742" gradientUnits="userSpaceOnUse">
<stop stop-color="#D0B8A8"/>
<stop offset="0.9999" stop-opacity="0.55057"/>
<stop offset="1" stop-opacity="0.43601"/>
<stop offset="1" stop-opacity="0.42"/>
</linearGradient>
</defs>
</svg>
