<svg width="24" height="25" viewBox="0 0 24 25" fill="none" xmlns="http://www.w3.org/2000/svg">
<path fill-rule="evenodd" clip-rule="evenodd" d="M7.42926 18.1263C10.8298 17.6295 13.1712 17.6723 16.5762 18.1437C16.8227 18.1795 17.0481 18.3032 17.2105 18.4922C17.373 18.6811 17.4616 18.9224 17.4599 19.1716C17.4599 19.41 17.378 19.6415 17.2299 19.8224C16.9719 20.1377 16.7076 20.4477 16.4371 20.7524H17.7491C17.8315 20.654 17.9145 20.5536 17.9985 20.4518C18.2931 20.0904 18.4539 19.6384 18.4535 19.1721C18.4535 18.1661 17.7193 17.2992 16.7123 17.1601C13.2268 16.6777 10.7905 16.6315 7.28569 17.1437C6.26826 17.2922 5.53699 18.1725 5.53699 19.1855C5.53699 19.6351 5.68354 20.0797 5.96125 20.4399C6.04322 20.5462 6.12419 20.6505 6.20467 20.7529H7.4849C7.23324 20.4516 6.98777 20.1451 6.74866 19.8338C6.60656 19.6474 6.5299 19.4194 6.53057 19.185C6.53057 18.6499 6.91508 18.2013 7.42926 18.1263ZM11.9953 13.3005C12.3867 13.3005 12.7743 13.2234 13.1359 13.0736C13.4976 12.9238 13.8262 12.7043 14.103 12.4275C14.3797 12.1507 14.5993 11.8221 14.7491 11.4605C14.8989 11.0988 14.976 10.7112 14.976 10.3198C14.976 9.92834 14.8989 9.54074 14.7491 9.1791C14.5993 8.81746 14.3797 8.48886 14.103 8.21208C13.8262 7.93529 13.4976 7.71573 13.1359 7.56593C12.7743 7.41614 12.3867 7.33904 11.9953 7.33904C11.2047 7.33904 10.4466 7.65308 9.88755 8.21208C9.32856 8.77107 9.01452 9.52924 9.01452 10.3198C9.01452 11.1103 9.32856 11.8685 9.88755 12.4275C10.4466 12.9865 11.2047 13.3005 11.9953 13.3005V13.3005ZM11.9953 14.2941C13.0493 14.2941 14.0602 13.8754 14.8055 13.13C15.5509 12.3847 15.9696 11.3738 15.9696 10.3198C15.9696 9.26572 15.5509 8.25484 14.8055 7.50951C14.0602 6.76418 13.0493 6.34546 11.9953 6.34546C10.9412 6.34546 9.93032 6.76418 9.18499 7.50951C8.43966 8.25484 8.02094 9.26572 8.02094 10.3198C8.02094 11.3738 8.43966 12.3847 9.18499 13.13C9.93032 13.8754 10.9412 14.2941 11.9953 14.2941V14.2941Z" fill="white"/>
<path fill-rule="evenodd" clip-rule="evenodd" d="M11.9951 21.7459C16.9337 21.7459 20.9373 17.7423 20.9373 12.8037C20.9373 7.86513 16.9337 3.8615 11.9951 3.8615C7.05653 3.8615 3.05291 7.86513 3.05291 12.8037C3.05291 17.7423 7.05653 21.7459 11.9951 21.7459ZM11.9951 22.7395C17.4827 22.7395 21.9309 18.2913 21.9309 12.8037C21.9309 7.31618 17.4827 2.86792 11.9951 2.86792C6.50758 2.86792 2.05933 7.31618 2.05933 12.8037C2.05933 18.2913 6.50758 22.7395 11.9951 22.7395Z" fill="white"/>
</svg>
